<svg id="svg40" xmlns="http://www.w3.org/2000/svg" viewBox="0 0 1310.17 1009.57"><defs><style>.cls-1{fill:#10069f;}</style></defs><path class="cls-1" d="M989.63,191.26l-31.21-31.17v0L896,97.61,864.81,66.43,833.59,35.22h-437L521.45,160.05h249.7l62.44,62.43L802.37,253.7l-31.18,31.18H708.76v0l0,0H583.89L459.06,160.05V534.58L583.89,409.75h187.3L802.37,441l31.22,31.18v0l-31.22,31.18-31.18,31.22H521.45L459.06,597v0h0l-31.18,31.22-31.22,31.18v0l-31.21,31.18-31.22,31.22h187.3v0l31.18-31.18,31.22-31.18v0H833.63l31.18-31.18L896,597l31.22-31.22,31.18-31.17V409.71L896,347.31l31.18-31.22,31.22-31.17v0h0l31.17-31.18,31.22-31.22ZM521.45,97.61h0v0Zm187.27,0h0v0ZM521.49,284.88v0l0,0Zm0,374.53h0v0ZM896,472.18l0,0h0Zm0-187.26,0,0h0Z" transform="translate(-334.19 -35.22)"/><path class="cls-1" d="M1394.66,35.22H895.3l31.22,31.21L957.7,97.61v0l31.22,31.18,31.21,31.22h312.1v0l31.22,31.17,31.21,31.22V409.75L1425.88,441l31.18,31.18h0v0l62.39,62.4V160.05ZM1082.53,97.61h0v0Zm187.26,0h0v0ZM1457.1,284.92l0,0h0Z" transform="translate(-334.19 -35.22)"/><path class="cls-1" d="M1613.14,690.62l-31.21-31.18v0l-31.22-31.18L1519.53,597h0v0l-93.61-93.61-31.22-31.18v0H1269.83v0l0,0H1207.4v0l31.22,31.18,31.21,31.22H1145V347.31l-62.43-62.43h-62.4V597l31.22,31.22,31.18,31.18h312.13v0l31.22,31.18,31.22,31.22h187.26ZM1082.57,472.18l0,0h0Zm374.49,187.23h0v0Zm62.43,0v0h0v0Z" transform="translate(-334.19 -35.22)"/><path class="cls-1" d="M567.39,936.65,561,930.3h0L548.3,917.57,542,911.21l-6.37-6.36H446.53L472,930.29h50.89L535.58,943l-6.36,6.37-6.35,6.35H484.7l-25.44-25.44v76.33l25.44-25.44h38.17l6.35,6.36,6.36,6.35h0l-6.36,6.36-6.35,6.36H472l-12.71,12.71h0l-6.36,6.36-6.36,6.36h0l-6.36,6.35-6.36,6.36H472l6.35-6.35,6.37-6.35h50.89l6.36-6.36,6.36-6.36,6.36-6.36,6.35-6.35V981.17l-12.71-12.72,6.35-6.36,6.36-6.35h0l6.36-6.35,6.36-6.37ZM472,917.57h0Zm38.17,0ZM472,955.73h0Zm0,76.33h0Zm76.34-38.16h0Zm0-38.16h0Z" transform="translate(-334.19 -35.22)"/><path class="cls-1" d="M1175.8,904.85H1074l6.37,6.36,6.35,6.36h0l6.36,6.36,6.36,6.36h63.61l6.36,6.35,6.36,6.36v38.17l6.36,6.36,6.36,6.35h0l12.71,12.72V930.29Zm-63.61,12.72h0Zm38.16,0h0Zm38.18,38.17h0Z" transform="translate(-334.19 -35.22)"/><path class="cls-1" d="M1220.33,1038.42l-6.36-6.35h0l-6.37-6.36-6.35-6.36h0l-19.08-19.07-6.36-6.36h-38.16l6.36,6.36,6.36,6.36h-25.45V968.45l-12.72-12.72h-12.72v63.61l6.37,6.36,6.35,6.36h63.61l6.36,6.35,6.37,6.36h38.16ZM1112.2,993.9h0Zm76.32,38.16h0Zm12.72,0h0Z" transform="translate(-334.19 -35.22)"/><polygon class="cls-1" points="482.85 983.86 482.94 933.36 470.42 920.65 483.91 907.73 508.89 907.73 508.49 1009.41 482.85 983.86"/><path class="cls-1" d="M817.5,905l12.55,12.54V930.2H804.91C800,925.26,784.59,910,779.65,905Z" transform="translate(-334.19 -35.22)"/><polygon class="cls-1" points="1084.53 869.71 1059.08 869.76 1084.53 895.32 1084.53 984.25 1097.19 996.82 1160.76 997.15 1135.14 971.36 1109.65 971.53 1109.8 882.48 1097.13 869.71 1084.53 869.71"/><polygon class="cls-1" points="1211.97 869.64 1173.68 869.73 1160.82 882.33 1160.76 958.72 1135.32 958.73 1186.2 1009.41 1224.23 1009.55 1186.38 971.4 1186.65 894.78 1211.97 869.64"/></svg>