<svg id="图层_1" data-name="图层 1" xmlns="http://www.w3.org/2000/svg" viewBox="0 0 308.72 282.02"><defs><style>.cls-1{fill:#c02f30;}</style></defs><path class="cls-1" d="M188.74,208.46h0L213.23,230v52h.05l-.05,0,17.64,15.75h0l5.66,5.08,18.62-18.36,18.55,18.26,7.27-6.51L297,282H297V230l24.45-21.51h0V182.75L351.85,156l-6.91-6.94-23.45,20.63V155l14.32-12.79-7.08-7-7.24,6.46V132.1a12.53,12.53,0,0,0,6.93-11c0-7-6-12.63-13.44-12.63s-13.43,5.66-13.43,12.63a12.57,12.57,0,0,0,7.15,11.16v9.29l-7-6.29-7.09,7,14.13,12.62v15.46l-24.11-21.22L277.68,156l31,27.3v19.88l-17,14.94-11.88-10.61-7.08,7,11.59,10.35v55L274,289.08l-12.39-12.2V203.29l26-22.9-6.91-6.94-19.11,16.82V178.63L275.82,166l-7.08-7-7.09,6.33V149.43a12.56,12.56,0,0,0,7-11.1c0-7-6-12.64-13.44-12.64s-13.42,5.67-13.42,12.64a12.57,12.57,0,0,0,7,11.1V191.5l-19.52-19.43L222,178.6l26.86,26.73v71.34l-12.68,12.5-10.59-9.46V225.2l.23-.23,11.67-10.41-7.09-7-11.88,10.61-17-15V183.34l31-27.31-6.9-6.94-24.12,21.23V154.85l14.14-12.62-7.09-7-7.05,6.29v-8.73a12.51,12.51,0,0,0,6.78-11c0-7-6-12.63-13.43-12.63s-13.43,5.66-13.43,12.63A12.58,12.58,0,0,0,188.74,133v8.64l-7.24-6.46-7.07,7L188.74,155v14.7l-23.45-20.64-6.9,6.94,30.35,26.72ZM315,117.18a3.88,3.88,0,1,1-4.12,3.88A4,4,0,0,1,315,117.18Zm-59.73,17.27a3.88,3.88,0,1,1-4.11,3.88A4,4,0,0,1,255.25,134.45Zm-60.37-16.51a3.88,3.88,0,1,1-4.12,3.88A4,4,0,0,1,194.88,117.94Z" transform="translate(-100.76 -108.43)"/><polygon class="cls-1" points="231.22 198.76 204.31 179.38 204.23 179.53 204.11 179.41 173.73 207.85 161.43 195.78 161.44 195.78 161.4 195.75 160.99 195.35 160.98 195.36 154.29 189.07 147.51 195.43 147.51 195.43 147.24 195.69 147.14 195.78 147.14 195.78 134.76 208 104.19 180.7 104.18 180.69 104.18 180.69 104.18 180.69 104.16 180.71 77.29 200.06 101.4 191.55 127.67 215 127.66 215 135.11 221.68 154.29 202.76 173.47 221.56 179.08 216.5 179.09 216.5 179.45 216.16 180.89 214.87 180.87 214.84 207.13 190.25 231.22 198.76"/><path class="cls-1" d="M241.86,372.1a8.1,8.1,0,0,0-8.08-8.08H182.72l-4.53,5.89h17.37v20.5h5.88v-20.5h32.34a2.19,2.19,0,0,1,0,4.38H219.61l16.14,16.15,8.3,0-10.23-10.23A8.09,8.09,0,0,0,241.86,372.1Z" transform="translate(-100.76 -108.43)"/><polygon class="cls-1" points="114.06 281.97 119.95 281.97 119.95 271.77 114.06 265.84 114.06 281.97"/><path class="cls-1" d="M162.62,380.17h10.57v2.19a2.19,2.19,0,0,1-2.19,2.19H152.87v-7.34a7.3,7.3,0,0,1,7.29-7.29h14.32L179,364H160.16a13.18,13.18,0,0,0-13.17,13h0v13.36h24a8.09,8.09,0,0,0,8.08-8.08v-8.08H162.62Z" transform="translate(-100.76 -108.43)"/><path class="cls-1" d="M373.83,384.52h-6.28a7.33,7.33,0,0,1-7.33-7.32h0v0a7.3,7.3,0,0,1,7.29-7.28h9.87l4.53-5.89h-14.4a13.18,13.18,0,0,0-13.17,13.14h0v.05a13.11,13.11,0,0,0,2.25,7.36h-19.4v-4.38H349.8l4.53-5.89H337.18v-4.38h17.15l4.53-5.89H303.72l-4.53,5.89h17.37v20.5h5.89v-20.5h8.89l0,0v20.45h0v0h23l3.4-4.42a13.18,13.18,0,0,0,9.82,4.38h6.28a8.09,8.09,0,0,0,8.08-8.08H376A2.2,2.2,0,0,1,373.83,384.52Z" transform="translate(-100.76 -108.43)"/><polygon class="cls-1" points="41.96 255.59 36.55 255.59 32.02 261.48 37.43 261.48 37.43 281.97 43.32 281.97 43.32 255.63 41.93 255.63 41.96 255.59"/><polygon class="cls-1" points="302.83 255.63 302.83 265.86 287.04 265.86 287.04 255.63 281.15 255.63 281.15 273.9 281.15 281.97 287.04 281.97 287.04 271.75 302.83 271.75 302.83 281.97 308.72 281.97 308.72 255.63 302.83 255.63"/><polygon class="cls-1" points="193.9 261.48 198.43 255.59 175.39 255.59 170.86 261.48 170.9 261.48 170.86 261.52 170.86 276.13 149.18 276.13 149.18 271.75 161.8 271.75 166.33 265.86 149.18 265.86 149.18 261.48 166.33 261.48 170.86 255.59 143.29 255.59 143.29 255.63 143.29 255.63 143.29 281.97 143.29 281.97 143.29 281.97 143.29 282.02 170.86 282.02 193.9 282.02 198.43 276.13 176.75 276.13 176.75 271.75 189.37 271.75 193.9 265.86 176.75 265.86 176.75 261.48 193.9 261.48"/><path class="cls-1" d="M124.66,364h-23.9v13.17l.42-.52,5.21-6.77h18.27a2.19,2.19,0,0,1,.19,4.37h-.19v0h-9.57l-4.53,5.89h14.29a2.18,2.18,0,0,1-.19,4.36h-18V374.09l-5.89,7.66v8.69h23.9a8.1,8.1,0,0,0,8.08-8.08,8,8,0,0,0-1.84-5.12,8.07,8.07,0,0,0-6.24-13.2Z" transform="translate(-100.76 -108.43)"/></svg>