<svg id="图层_1" data-name="图层 1" xmlns="http://www.w3.org/2000/svg" viewBox="0 0 965.15 743.71"><defs><style>.cls-1{fill:#10069f;}</style></defs><path class="cls-1" d="M525.69,255.44l-23-23v0l-46-46-23-23-23-23H88.84l92,91.95H364.74l46,46-23,23-23,23h-46v0l0,0h-92l-92-92v275.9l91.95-91.95h138l23,23,23,23v0l-23,23-23,23h-184l-46,46v0h0l-23,23-23,23v0l-23,23-23,23h138v0l23-23,23-23v0h184l23-23,23-23,23-23,23-23v-92l-46-46,23-23,23-23v0h0l23-23,23-23Zm-344.89-69h0v0Zm138,0h0v0Zm-137.92,138v0l0,0Zm0,275.9h0v0ZM456.73,462.38l0,0h0Zm0-137.95,0,0h0Z" transform="translate(-42.85 -140.49)"/><path class="cls-1" d="M824.06,140.49H456.2l23,23,23,23v0l23,23,23,23h229.9v0l23,23,23,23v138l23,23,23,23h0v0l46,46V232.44Zm-229.94,46h0v0Zm138,0h0v0Zm138,138,0,0h0Z" transform="translate(-42.85 -140.49)"/><path class="cls-1" d="M985,623.3l-23-23v0l-23-23-23-23h0v0l-69-69-23-23v0h-92v0l0,0h-46v0l23,23,23,23h-92V370.39l-46-46h-46V554.34l23,23,23,23H824.06v0l23,23,23,23h138ZM594.15,462.38l0,0h0ZM870,600.3h0v0Zm46,0v0h0v0Z" transform="translate(-42.85 -140.49)"/><path class="cls-1" d="M214.64,804.54,210,799.86h0l-9.37-9.37-4.68-4.68-4.69-4.69h-65.6l18.74,18.74h37.49l9.37,9.37-4.69,4.69-4.68,4.68H153.72L135,799.85v56.23l18.74-18.74h28.12l4.68,4.69,4.69,4.68h0l-4.69,4.68-4.68,4.69H144.35L135,865.45h0l-4.68,4.69-4.69,4.68h0l-4.69,4.68-4.68,4.68h28.12l4.68-4.68,4.68-4.68h37.5l4.68-4.68,4.68-4.69,4.69-4.68,4.68-4.69V837.33L200.58,828l4.68-4.69L210,818.6h0l4.68-4.68,4.68-4.69Zm-70.29-14.06h0Zm28.11,0h0Zm-28.1,28.11h0Zm0,56.23h0Zm56.23-28.11Zm0-28.11h0Z" transform="translate(-42.85 -140.49)"/><path class="cls-1" d="M662.83,781.11h-75l4.69,4.69,4.68,4.68h0l4.69,4.68,4.68,4.69h46.86l4.68,4.68,4.69,4.68v28.12l4.69,4.69,4.68,4.68h0l9.37,9.37V799.85ZM616,790.48h0Zm28.11,0h0ZM672.2,818.6h0Z" transform="translate(-42.85 -140.49)"/><path class="cls-1" d="M695.63,879.51l-4.69-4.68h0l-4.68-4.68-4.68-4.69h0l-14.05-14.06-4.69-4.68H634.72l4.68,4.68,4.69,4.69H625.34V828L616,818.59H606.6v46.86l4.69,4.69,4.68,4.68h46.86l4.69,4.68,4.68,4.68h28.12ZM616,846.71h0Zm56.22,28.11Zm9.37,0h0Z" transform="translate(-42.85 -140.49)"/><polygon class="cls-1" points="355.69 724.77 355.76 687.57 346.54 678.21 356.48 668.68 374.88 668.68 374.58 743.59 355.69 724.77"/><path class="cls-1" d="M398.89,781.18l9.24,9.24v9.37H389.61c-3.65-3.65-15-14.91-18.61-18.56Z" transform="translate(-42.85 -140.49)"/><polygon class="cls-1" points="798.92 640.68 780.18 640.72 798.92 659.54 798.92 725.06 808.26 734.32 855.08 734.56 836.21 715.56 817.44 715.69 817.54 650.09 808.21 640.68 798.92 640.68"/><polygon class="cls-1" points="892.81 640.63 864.6 640.7 855.13 649.98 855.08 706.25 836.34 706.26 873.83 743.59 901.84 743.7 873.96 715.59 874.16 659.15 892.81 640.63"/></svg>